<?xml version="1.0" standalone="no"?>
<!DOCTYPE svg PUBLIC "-//W3C//DTD SVG 20010904//EN"
 "http://www.w3.org/TR/2001/REC-SVG-20010904/DTD/svg10.dtd">
<svg version="1.0" xmlns="http://www.w3.org/2000/svg"
 width="1024.000000pt" height="1024.000000pt" viewBox="0 0 1024.000000 1024.000000"
 preserveAspectRatio="xMidYMid meet">

<g transform="translate(0.000000,1024.000000) scale(0.100000,-0.100000)"
fill="#000000" stroke="none">
<path d="M4995 10004 c-16 -2 -73 -9 -125 -15 -458 -51 -912 -243 -1305 -553
-210 -165 -454 -437 -594 -663 -109 -176 -225 -431 -296 -652 -111 -347 -166
-668 -215 -1261 -69 -830 -139 -1142 -420 -1864 -165 -426 -196 -534 -207
-721 -4 -74 -1 -122 11 -183 l17 -83 -28 -21 c-15 -12 -67 -60 -114 -107 -102
-102 -141 -174 -147 -266 -4 -59 -6 -62 -40 -81 -127 -66 -357 -277 -474 -434
-177 -236 -342 -573 -484 -990 -165 -486 -286 -972 -378 -1526 -29 -171 -86
-557 -86 -579 0 -3 2254 -5 5009 -5 l5008 0 -19 128 c-113 765 -232 1298 -410
1841 -156 478 -287 772 -454 1021 -176 264 -375 445 -609 556 l-95 45 -1 47
c-1 26 -1 85 0 132 5 230 -84 496 -307 919 -236 444 -343 724 -416 1086 -35
172 -51 316 -91 790 -60 712 -95 989 -176 1390 -102 505 -283 939 -532 1275
-88 119 -268 299 -368 367 -221 151 -446 215 -658 185 l-74 -11 -50 45 c-102
92 -290 160 -505 183 -95 10 -297 13 -367 5z m795 -753 c0 -13 24 -34 73 -64
119 -75 295 -263 269 -289 -7 -7 -16 0 -27 23 -10 18 -24 39 -31 47 -8 7 -19
23 -25 34 -6 11 -13 17 -16 14 -4 -3 1 -14 9 -23 9 -10 37 -49 64 -88 26 -38
44 -61 40 -50 -11 31 -12 33 -2 36 22 10 207 -343 299 -572 30 -74 80 -208
112 -299 189 -535 253 -703 346 -911 l49 -111 0 -162 c0 -241 -41 -638 -91
-888 -86 -430 -266 -719 -668 -1071 -525 -460 -724 -570 -1057 -584 -139 -6
-219 5 -349 49 -155 53 -383 188 -595 352 -137 106 -509 476 -593 590 -189
257 -303 598 -352 1056 -23 212 -16 463 16 540 11 27 126 116 146 114 7 -1 11
2 8 6 -3 4 29 35 70 69 84 70 291 273 376 369 l56 62 124 -6 c68 -3 177 -12
241 -20 157 -19 242 -18 262 2 28 27 20 71 -21 114 -32 34 -50 43 -118 60
-102 25 -245 43 -302 37 -29 -3 -42 0 -40 7 2 6 9 11 14 11 6 0 15 4 20 9 5 5
3 6 -4 2 -22 -13 -14 4 41 84 93 134 118 165 128 162 5 -1 7 2 4 7 -5 7 141
223 226 336 251 331 295 384 436 529 190 193 375 323 562 393 85 32 129 41
223 42 69 1 77 -1 77 -18z m1419 -2700 c21 -42 48 -105 61 -140 21 -58 22 -67
10 -115 -19 -77 -65 -173 -112 -234 -59 -76 -190 -147 -174 -94 3 9 17 85 31
167 14 83 30 175 35 205 20 113 40 286 40 344 l0 61 36 -59 c20 -33 53 -94 73
-135z m-4864 -1183 c-73 -433 -171 -859 -254 -1105 -49 -143 -72 -183 -106
-183 -19 0 -30 76 -28 187 3 159 38 278 236 788 58 149 120 319 138 378 18 60
35 104 37 99 2 -6 -9 -79 -23 -164z m5663 -508 c45 -91 119 -239 166 -330 136
-264 218 -487 232 -630 l6 -65 -60 59 c-56 54 -62 66 -91 157 -18 54 -68 185
-112 291 -45 106 -107 264 -139 352 -55 152 -160 483 -160 502 0 5 18 -31 39
-81 21 -49 74 -164 119 -255z m-1860 -230 c-13 -53 -17 -393 -5 -465 8 -49 7
-52 -56 -160 -168 -292 -313 -486 -555 -742 -98 -103 -208 -221 -245 -262 -78
-87 -235 -291 -269 -351 -13 -22 -26 -40 -29 -40 -4 0 -44 57 -89 128 -141
217 -288 404 -777 984 l-133 156 26 59 c47 104 64 217 63 418 0 99 -4 201 -8
228 -7 44 0 65 12 34 7 -18 172 -150 268 -215 358 -240 683 -310 1024 -222 94
25 253 98 357 165 83 54 298 220 373 288 28 25 51 44 52 43 1 -1 -3 -22 -9
-46z"/>
<path d="M5545 9160 c-3 -6 1 -7 9 -4 18 7 21 14 7 14 -6 0 -13 -4 -16 -10z"/>
<path d="M5407 9139 c7 -7 15 -10 18 -7 3 3 -2 9 -12 12 -14 6 -15 5 -6 -5z"/>
<path d="M5189 9043 c-13 -16 -12 -17 4 -4 9 7 17 15 17 17 0 8 -8 3 -21 -13z"/>
<path d="M5359 9043 c-13 -16 -12 -17 4 -4 9 7 17 15 17 17 0 8 -8 3 -21 -13z"/>
<path d="M5101 8976 c-9 -11 -9 -16 0 -22 7 -4 9 -3 5 4 -3 6 2 15 11 21 10 6
13 11 7 11 -6 0 -17 -6 -23 -14z"/>
<path d="M5160 8910 c-9 -6 -10 -10 -3 -10 6 0 15 5 18 10 8 12 4 12 -15 0z"/>
<path d="M5065 8830 c-3 -5 -1 -10 4 -10 6 0 11 5 11 10 0 6 -2 10 -4 10 -3 0
-8 -4 -11 -10z"/>
<path d="M4911 8793 c-7 -8 -11 -16 -8 -19 2 -2 10 2 17 11 17 20 9 27 -9 8z"/>
<path d="M5026 8795 c-11 -8 -17 -17 -14 -20 2 -3 13 4 23 15 21 23 18 25 -9
5z"/>
<path d="M4960 8730 c-6 -11 -8 -20 -6 -20 3 0 10 9 16 20 6 11 8 20 6 20 -3
0 -10 -9 -16 -20z"/>
<path d="M6214 8722 c4 -3 14 -7 22 -8 9 -1 13 0 10 4 -4 3 -14 7 -22 8 -9 1
-13 0 -10 -4z"/>
<path d="M6266 8627 c3 -10 9 -15 12 -12 3 3 0 11 -7 18 -10 9 -11 8 -5 -6z"/>
<path d="M6281 8595 c0 -5 3 -16 8 -23 7 -11 9 -10 14 3 4 9 3 14 -2 10 -5 -3
-12 1 -14 7 -3 7 -6 9 -6 3z"/>
<path d="M4740 8566 c0 -2 7 -7 16 -10 8 -3 12 -2 9 4 -6 10 -25 14 -25 6z"/>
<path d="M4784 8548 l-19 -23 23 19 c21 18 27 26 19 26 -2 0 -12 -10 -23 -22z"/>
<path d="M4670 8515 c-7 -9 -11 -17 -9 -20 3 -2 10 5 17 15 14 24 10 26 -8 5z"/>
<path d="M4723 8496 c3 -7 0 -20 -6 -27 -10 -11 -9 -11 5 0 15 11 15 41 1 41
-3 0 -3 -6 0 -14z"/>
<path d="M6350 8416 c0 -8 4 -17 9 -20 5 -4 7 3 4 14 -6 23 -13 26 -13 6z"/>
<path d="M4636 8382 l-19 -27 26 24 c28 26 32 31 20 31 -5 0 -17 -13 -27 -28z"/>
<path d="M4599 8333 c-13 -16 -12 -17 4 -4 16 13 21 21 13 21 -2 0 -10 -8 -17
-17z"/>
<path d="M4564 8312 c4 -7 2 -21 -5 -30 -12 -15 -11 -15 6 0 16 15 17 20 6 30
-11 11 -13 10 -7 0z"/>
<path d="M4509 8223 c-13 -16 -12 -17 4 -4 9 7 17 15 17 17 0 8 -8 3 -21 -13z"/>
<path d="M6431 8204 c0 -11 3 -14 6 -6 3 7 2 16 -1 19 -3 4 -6 -2 -5 -13z"/>
<path d="M4480 8189 c0 -5 5 -7 10 -4 6 3 10 8 10 11 0 2 -4 4 -10 4 -5 0 -10
-5 -10 -11z"/>
<path d="M6441 8165 c1 -19 18 -51 18 -35 0 8 -4 22 -9 30 -5 8 -9 11 -9 5z"/>
<path d="M4405 8151 c4 -7 3 -16 -4 -21 -9 -5 -9 -10 1 -18 11 -9 14 -6 13 13
0 13 -4 27 -9 32 -5 5 -6 2 -1 -6z"/>
<path d="M4436 8135 c-9 -26 -7 -32 5 -12 6 10 9 21 6 23 -2 3 -7 -2 -11 -11z"/>
<path d="M6470 8121 c0 -5 5 -13 10 -16 6 -3 10 -2 10 4 0 5 -4 13 -10 16 -5
3 -10 2 -10 -4z"/>
<path d="M6496 8093 c-6 -14 -5 -15 5 -6 7 7 10 15 7 18 -3 3 -9 -2 -12 -12z"/>
<path d="M4359 8083 c-13 -16 -12 -17 4 -4 16 13 21 21 13 21 -2 0 -10 -8 -17
-17z"/>
<path d="M6466 8077 c3 -10 9 -15 12 -12 3 3 0 11 -7 18 -10 9 -11 8 -5 -6z"/>
<path d="M4368 8043 c-18 -21 -31 -43 -25 -43 2 0 13 14 25 30 25 33 24 41 0
13z"/>
<path d="M6490 8011 c0 -6 4 -13 10 -16 6 -3 7 1 4 9 -7 18 -14 21 -14 7z"/>
<path d="M4291 7945 c-27 -40 -46 -46 -36 -12 7 22 7 22 -8 2 -9 -11 -11 -22
-6 -26 5 -3 7 -14 3 -25 -4 -10 11 3 34 31 36 42 50 65 40 65 -2 0 -14 -16
-27 -35z"/>
<path d="M6521 7940 c0 -8 4 -22 9 -30 12 -18 12 -2 0 25 -6 13 -9 15 -9 5z"/>
<path d="M4184 7818 l-19 -23 23 19 c21 18 27 26 19 26 -2 0 -12 -10 -23 -22z"/>
<path d="M6561 7820 c0 -8 4 -22 9 -30 12 -18 12 -2 0 25 -6 13 -9 15 -9 5z"/>
<path d="M4133 7773 c4 -3 -1 -16 -10 -27 -18 -21 -18 -21 4 -2 20 16 23 36 6
36 -4 0 -3 -3 0 -7z"/>
<path d="M5915 7680 c-234 -33 -325 -84 -325 -181 0 -29 5 -38 25 -47 37 -17
104 -14 230 9 65 11 180 22 281 26 188 6 233 0 413 -57 110 -35 131 -37 131
-11 0 37 -119 135 -238 195 -87 44 -193 67 -332 71 -69 2 -152 0 -185 -5z"/>
<path d="M6661 7564 c0 -11 3 -14 6 -6 3 7 2 16 -1 19 -3 4 -6 -2 -5 -13z"/>
<path d="M6676 7497 c3 -10 9 -15 12 -12 3 3 0 11 -7 18 -10 9 -11 8 -5 -6z"/>
<path d="M6731 7384 c0 -11 3 -14 6 -6 3 7 2 16 -1 19 -3 4 -6 -2 -5 -13z"/>
<path d="M6780 7254 c0 -5 7 -18 15 -28 8 -11 15 -16 15 -10 0 5 -7 18 -15 28
-8 11 -15 16 -15 10z"/>
<path d="M6807 7183 c3 -7 6 -13 8 -13 2 0 5 6 8 13 3 8 -1 14 -8 14 -7 0 -11
-6 -8 -14z"/>
<path d="M6838 7162 c4 -11 1 -13 -7 -7 -10 6 -11 3 -2 -14 7 -11 14 -21 17
-21 3 0 2 4 -1 10 -3 5 -1 18 4 28 7 14 6 19 -4 19 -7 0 -11 -7 -7 -15z"/>
<path d="M3948 7154 c-78 -18 -170 -67 -224 -116 -53 -49 -137 -165 -129 -179
18 -28 95 1 161 61 52 48 123 89 192 112 30 10 59 18 64 18 4 0 -5 -18 -21
-40 -88 -122 -48 -290 81 -345 80 -33 163 -12 221 55 53 62 70 147 43 222 -13
36 -13 37 7 26 42 -22 120 -104 150 -156 39 -69 54 -57 33 26 -23 92 -53 147
-111 206 -85 86 -194 127 -338 125 -40 0 -98 -7 -129 -15z"/>
<path d="M5960 7159 c-107 -21 -182 -71 -254 -169 -46 -63 -89 -174 -84 -218
3 -25 6 -23 32 28 40 78 83 128 135 161 24 16 46 27 48 25 2 -1 -4 -19 -12
-39 -21 -51 -19 -139 4 -186 41 -80 131 -129 207 -115 49 9 113 60 141 113 39
75 28 206 -24 263 -23 26 -14 29 44 14 72 -19 144 -61 212 -122 63 -57 95 -74
142 -74 l29 0 -66 90 c-78 107 -116 140 -209 185 -105 50 -232 66 -345 44z"/>
<path d="M3400 6965 c-7 -9 -8 -15 -2 -15 5 0 12 7 16 15 3 8 4 15 2 15 -2 0
-9 -7 -16 -15z"/>
<path d="M3344 6923 c3 -6 -2 -16 -11 -22 -16 -9 -16 -10 3 -8 21 1 26 19 9
34 -4 4 -5 3 -1 -4z"/>
<path d="M3341 6844 c0 -11 3 -14 6 -6 3 7 2 16 -1 19 -3 4 -6 -2 -5 -13z"/>
<path d="M3331 6804 c0 -11 3 -14 6 -6 3 7 2 16 -1 19 -3 4 -6 -2 -5 -13z"/>
<path d="M3315 6720 c-4 -23 -5 -43 -2 -46 2 -3 7 14 11 37 4 23 5 44 2 46 -2
2 -7 -14 -11 -37z"/>
<path d="M3295 6604 c0 -24 3 -44 8 -44 4 0 7 18 7 39 0 22 -3 42 -7 44 -5 3
-8 -15 -8 -39z"/>
<path d="M3303 6360 c0 -25 2 -35 4 -22 2 12 2 32 0 45 -2 12 -4 2 -4 -23z"/>
<path d="M3302 6260 c0 -14 2 -19 5 -12 2 6 2 18 0 25 -3 6 -5 1 -5 -13z"/>
<path d="M4745 6263 c-25 -7 -93 -54 -122 -84 -12 -13 -34 -50 -49 -82 -51
-113 -17 -213 81 -238 114 -30 104 -30 94 4 -5 16 -24 57 -44 89 -19 33 -35
73 -35 89 0 36 39 116 80 162 16 19 30 42 30 51 0 17 -2 17 -35 9z"/>
<path d="M5430 6257 c0 -7 29 -42 65 -77 70 -69 91 -112 76 -151 -5 -13 -29
-58 -55 -99 l-45 -75 29 -3 c33 -4 96 26 126 60 79 87 70 180 -28 275 -62 61
-168 105 -168 70z"/>
<path d="M3311 6134 c0 -11 3 -14 6 -6 3 7 2 16 -1 19 -3 4 -6 -2 -5 -13z"/>
<path d="M4803 5964 c-8 -21 -1 -25 102 -69 72 -30 107 -39 174 -43 75 -4 93
-1 181 28 102 34 158 68 146 88 -12 19 -86 13 -169 -13 -101 -32 -174 -32
-273 0 -89 29 -152 33 -161 9z"/>
<path d="M4758 5933 c7 -3 16 -2 19 1 4 3 -2 6 -13 5 -11 0 -14 -3 -6 -6z"/>
<path d="M3352 5865 c0 -11 4 -31 8 -45 6 -20 8 -21 8 -5 0 11 -4 31 -8 45 -6
20 -8 21 -8 5z"/>
<path d="M5440 5840 c0 -6 7 -10 15 -10 8 0 15 2 15 4 0 2 -7 6 -15 10 -8 3
-15 1 -15 -4z"/>
<path d="M4845 5800 c11 -5 29 -8 40 -8 16 0 15 2 -5 8 -34 11 -60 11 -35 0z"/>
<path d="M5378 5803 c7 -3 16 -2 19 1 4 3 -2 6 -13 5 -11 0 -14 -3 -6 -6z"/>
<path d="M5318 5793 c7 -3 16 -2 19 1 4 3 -2 6 -13 5 -11 0 -14 -3 -6 -6z"/>
<path d="M4118 5773 c7 -3 16 -2 19 1 4 3 -2 6 -13 5 -11 0 -14 -3 -6 -6z"/>
<path d="M5020 5770 c24 -8 158 -14 149 -6 -2 2 -42 6 -89 9 -52 4 -75 3 -60
-3z"/>
<path d="M6028 5763 c6 -2 18 -2 25 0 6 3 1 5 -13 5 -14 0 -19 -2 -12 -5z"/>
<path d="M6110 5756 c0 -2 8 -10 18 -17 15 -13 16 -12 3 4 -13 16 -21 21 -21
13z"/>
<path d="M4123 5738 c1 -7 -6 -12 -17 -11 -13 1 -15 -2 -7 -10 7 -7 15 -6 26
3 17 14 20 30 5 30 -5 0 -9 -6 -7 -12z"/>
<path d="M6020 5746 c0 -2 7 -7 16 -10 8 -3 12 -2 9 4 -6 10 -25 14 -25 6z"/>
<path d="M4064 5688 c-4 -7 -15 -24 -23 -38 -10 -15 -11 -21 -3 -17 6 5 12 4
12 0 0 -5 -6 -15 -12 -23 -11 -12 -10 -12 4 -1 18 14 16 16 203 -155 147 -134
276 -228 397 -288 59 -30 104 -57 100 -61 -4 -5 -2 -5 5 -2 6 4 55 -5 110 -20
86 -24 116 -27 253 -28 156 0 206 7 320 45 77 26 137 52 198 89 50 30 72 33
72 10 0 -6 -4 -8 -9 -5 -4 3 -17 -1 -27 -10 -18 -14 -18 -15 4 -4 17 8 22 8
22 -2 1 -7 9 -3 19 10 12 13 25 20 35 16 18 -7 19 -13 6 -34 -9 -13 -11 -13
-20 0 -5 8 -10 11 -10 5 0 -13 18 -41 22 -35 2 3 13 19 25 37 16 22 19 34 11
39 -7 4 -8 3 -4 -4 4 -7 2 -12 -3 -12 -6 0 -11 5 -11 10 0 6 -3 9 -7 9 -5 -1
-15 -1 -23 0 -13 1 -13 2 0 12 13 9 13 10 0 6 -8 -2 -14 -10 -12 -17 1 -6 -2
-10 -8 -8 -7 2 -11 7 -11 11 1 12 175 147 181 141 3 -3 -4 -13 -16 -23 -11 -9
-19 -21 -17 -27 2 -6 -12 -28 -31 -47 -19 -20 -31 -39 -27 -42 16 -9 104 122
97 142 -8 20 179 177 197 166 5 -3 7 -2 4 4 -3 5 12 27 33 48 22 22 40 42 40
45 0 3 -16 18 -35 33 l-36 29 -42 -35 c-79 -64 -304 -160 -500 -212 -330 -88
-725 -69 -1042 51 -38 14 -78 28 -87 31 -10 3 -15 9 -12 14 3 5 -1 7 -8 4 -17
-6 -211 82 -271 123 -52 36 -53 37 -63 20z m477 -278 c193 -64 438 -97 654
-85 201 10 331 36 569 112 16 5 17 4 6 -18 -25 -47 -136 -144 -205 -180 -216
-113 -445 -143 -675 -88 -128 31 -300 118 -370 188 -53 53 -89 101 -74 101 3
0 46 -13 95 -30z"/>
<path d="M3962 5620 c0 -14 2 -19 5 -12 2 6 2 18 0 25 -3 6 -5 1 -5 -13z"/>
<path d="M6145 5590 c-3 -6 1 -7 9 -4 18 7 21 14 7 14 -6 0 -13 -4 -16 -10z"/>
<path d="M4060 5586 c0 -2 7 -7 16 -10 8 -3 12 -2 9 4 -6 10 -25 14 -25 6z"/>
<path d="M4336 5581 c15 -17 189 -39 344 -45 l125 -5 -120 9 c-116 9 -311 36
-344 47 -12 5 -13 3 -5 -6z"/>
<path d="M5825 5571 c-22 -3 -35 -9 -29 -13 11 -7 84 8 84 17 0 3 -3 4 -7 4
-5 -1 -26 -5 -48 -8z"/>
<path d="M4028 5563 c7 -3 16 -2 19 1 4 3 -2 6 -13 5 -11 0 -14 -3 -6 -6z"/>
<path d="M6185 5560 c-3 -6 1 -7 9 -4 18 7 21 14 7 14 -6 0 -13 -4 -16 -10z"/>
<path d="M4073 5553 c9 -2 23 -2 30 0 6 3 -1 5 -18 5 -16 0 -22 -2 -12 -5z"/>
<path d="M5714 5554 c-5 -2 -66 -8 -135 -13 l-124 -9 125 1 c69 0 130 4 135 8
6 4 24 9 40 12 l30 4 -30 1 c-16 0 -35 -2 -41 -4z"/>
<path d="M6110 5540 c-8 -5 -10 -10 -5 -10 6 0 17 5 25 10 8 5 11 10 5 10 -5
0 -17 -5 -25 -10z"/>
<path d="M4466 5524 c15 -8 29 -12 32 -9 3 3 -1 5 -9 6 -8 0 -5 4 6 8 15 7 11
9 -18 9 l-39 0 28 -14z"/>
<path d="M5337 5533 c18 -2 50 -2 70 0 21 2 7 4 -32 4 -38 0 -55 -2 -38 -4z"/>
<path d="M5745 5530 c-16 -7 -17 -9 -3 -9 9 -1 20 4 23 9 7 11 7 11 -20 0z"/>
<path d="M4525 5520 c-3 -5 -5 -10 -2 -10 2 0 32 -11 68 -25 56 -22 61 -22 39
-5 -14 11 -33 20 -42 20 -9 0 -24 3 -33 6 -13 5 -14 8 -3 15 10 7 9 9 -4 9 -9
0 -20 -4 -23 -10z"/>
<path d="M4952 5523 c59 -2 158 -2 220 0 62 1 14 3 -107 3 -121 0 -172 -2
-113 -3z"/>
<path d="M4653 5513 c9 -2 25 -2 35 0 9 3 1 5 -18 5 -19 0 -27 -2 -17 -5z"/>
<path d="M5550 5510 c-12 -8 -12 -10 3 -16 10 -3 21 -4 24 0 4 3 0 6 -8 6 -11
0 -11 2 1 10 8 5 11 10 5 10 -5 0 -17 -4 -25 -10z"/>
<path d="M5630 5510 c-13 -9 -13 -10 0 -11 10 0 8 -3 -5 -9 -13 -6 -15 -9 -5
-9 8 0 22 4 30 9 13 9 13 10 0 10 -13 0 -13 1 0 10 8 5 11 10 5 10 -5 0 -17
-5 -25 -10z"/>
<path d="M4650 5490 c8 -5 22 -10 30 -10 13 0 13 1 0 10 -8 5 -22 10 -30 10
-13 0 -13 -1 0 -10z"/>
<path d="M5568 5473 c6 -2 18 -2 25 0 6 3 1 5 -13 5 -14 0 -19 -2 -12 -5z"/>
<path d="M4684 5459 c-4 -8 0 -9 15 -4 12 4 21 2 21 -4 0 -6 8 -11 18 -11 15
1 15 2 -2 15 -24 18 -42 19 -52 4z"/>
<path d="M4855 5430 c-16 -6 -13 -8 13 -7 17 0 32 1 32 2 0 8 -28 11 -45 5z"/>
<path d="M4938 5433 c7 -3 16 -2 19 1 4 3 -2 6 -13 5 -11 0 -14 -3 -6 -6z"/>
<path d="M5193 5433 c9 -2 23 -2 30 0 6 3 -1 5 -18 5 -16 0 -22 -2 -12 -5z"/>
<path d="M5311 5429 c-18 -6 -31 -12 -29 -14 2 -2 26 2 53 10 28 7 41 13 30
13 -11 0 -35 -4 -54 -9z"/>
<path d="M5018 5423 c7 -3 16 -2 19 1 4 3 -2 6 -13 5 -11 0 -14 -3 -6 -6z"/>
<path d="M4943 5413 c9 -2 25 -2 35 0 9 3 1 5 -18 5 -19 0 -27 -2 -17 -5z"/>
<path d="M5218 5413 c12 -2 30 -2 40 0 9 3 -1 5 -23 4 -22 0 -30 -2 -17 -4z"/>
<path d="M4346 5335 c4 -8 10 -15 15 -15 4 0 6 -7 3 -15 -4 -8 -1 -15 6 -15 6
0 8 5 4 12 -5 8 -2 9 9 5 24 -9 21 -4 -13 21 -20 15 -28 18 -24 7z"/>
<path d="M5784 5275 c-20 -19 -34 -38 -29 -42 4 -5 10 -2 12 5 3 7 19 26 36
42 18 17 29 30 26 30 -4 0 -24 -16 -45 -35z"/>
<path d="M4405 5280 c-4 -6 -11 -7 -17 -4 -16 10 30 -69 63 -107 16 -19 29
-29 29 -22 0 6 -4 15 -10 18 -5 3 -10 11 -10 16 0 6 4 7 10 4 6 -4 7 1 3 11
-5 13 -2 15 15 10 23 -8 39 8 21 20 -8 4 -9 3 -5 -4 9 -15 -6 -16 -21 -1 -8 8
-13 5 -18 -10 -3 -12 -10 -21 -15 -21 -11 0 -21 30 -15 41 4 5 -1 6 -9 3 -21
-8 -20 5 1 28 16 18 16 18 -2 12 -13 -5 -16 -4 -11 4 4 7 5 12 2 12 -3 0 -8
-5 -11 -10z"/>
<path d="M4447 5249 c7 -7 15 -10 18 -7 3 3 -2 9 -12 12 -14 6 -15 5 -6 -5z"/>
<path d="M4590 5166 c0 -3 14 -12 30 -21 17 -9 30 -13 30 -11 0 3 -13 12 -30
21 -16 9 -30 13 -30 11z"/>
<path d="M5610 5160 c-8 -5 -10 -10 -5 -10 6 0 17 5 25 10 8 5 11 10 5 10 -5
0 -17 -5 -25 -10z"/>
<path d="M5670 5165 c0 -4 10 -15 23 -25 12 -10 19 -22 14 -26 -4 -4 -14 1
-22 12 -9 11 -14 13 -13 5 2 -7 -3 -16 -11 -19 -8 -3 -11 0 -7 7 4 6 2 11 -3
11 -16 0 -13 -14 7 -38 l19 -21 26 27 c19 20 22 30 14 37 -33 28 -47 37 -47
30z m20 -65 c0 -5 -4 -10 -10 -10 -5 0 -10 5 -10 10 0 6 5 10 10 10 6 0 10 -4
10 -10z"/>
<path d="M4585 5140 c3 -6 -6 -15 -20 -20 -14 -5 -23 -14 -20 -20 9 -14 11
-13 40 14 21 20 23 25 10 30 -9 3 -13 2 -10 -4z"/>
<path d="M5606 5105 c26 -24 34 -29 34 -22 0 10 -39 47 -49 47 -7 0 0 -11 15
-25z"/>
<path d="M4520 5095 c0 -13 31 -41 105 -97 72 -54 91 -65 81 -50 -3 6 -36 32
-73 58 -37 27 -78 60 -90 74 -12 14 -22 21 -23 15z"/>
<path d="M5470 5090 c-9 -6 -10 -10 -3 -10 6 0 15 5 18 10 8 12 4 12 -15 0z"/>
<path d="M5415 5080 c-16 -7 -17 -9 -3 -9 9 -1 20 4 23 9 7 11 7 11 -20 0z"/>
<path d="M4742 5069 c6 -4 3 -11 -8 -18 -11 -6 -14 -11 -8 -11 5 0 14 4 20 9
5 5 25 14 44 19 l35 10 -47 -2 c-25 0 -42 -4 -36 -7z"/>
<path d="M5606 5053 c2 -36 1 -35 25 -23 l20 11 -22 20 c-12 10 -23 19 -23 19
-1 0 -1 -12 0 -27z m24 -7 c0 -3 -4 -8 -10 -11 -5 -3 -10 -1 -10 4 0 6 5 11
10 11 6 0 10 -2 10 -4z"/>
<path d="M5448 5063 c6 -2 18 -2 25 0 6 3 1 5 -13 5 -14 0 -19 -2 -12 -5z"/>
<path d="M4798 5053 c7 -3 16 -2 19 1 4 3 -2 6 -13 5 -11 0 -14 -3 -6 -6z"/>
<path d="M4845 5050 c3 -5 12 -7 20 -3 21 7 19 13 -6 13 -11 0 -18 -4 -14 -10z"/>
<path d="M5288 5043 c6 -2 18 -2 25 0 6 3 1 5 -13 5 -14 0 -19 -2 -12 -5z"/>
<path d="M4635 5030 c-3 -6 1 -7 9 -4 18 7 21 14 7 14 -6 0 -13 -4 -16 -10z"/>
<path d="M5138 5033 c12 -2 32 -2 45 0 12 2 2 4 -23 4 -25 0 -35 -2 -22 -4z"/>
<path d="M5526 5028 c3 -5 14 -6 24 -3 10 3 25 -1 34 -10 9 -9 16 -12 16 -6 0
5 -5 13 -12 17 -17 11 -68 12 -62 2z"/>
<path d="M5260 4999 c0 -5 5 -7 10 -4 6 3 10 8 10 11 0 2 -4 4 -10 4 -5 0 -10
-5 -10 -11z"/>
<path d="M5535 4990 c18 -21 18 -23 2 -17 -10 4 -16 3 -12 -2 3 -5 -3 -11 -12
-13 -11 -2 -14 -6 -7 -10 6 -4 26 5 44 21 23 18 30 30 22 35 -7 4 -12 2 -12
-4 0 -7 -7 -7 -22 1 l-23 12 20 -23z"/>
<path d="M4698 4993 c7 -3 16 -2 19 1 4 3 -2 6 -13 5 -11 0 -14 -3 -6 -6z"/>
<path d="M4763 4950 c-13 -5 -23 -14 -23 -19 0 -15 60 -46 147 -77 75 -26 85
-28 127 -16 26 6 83 13 129 14 l82 1 -110 9 c-152 13 -176 13 -210 4 -24 -6
-27 -5 -15 4 13 9 12 10 -5 6 -11 -3 -31 1 -45 9 -14 7 -41 21 -60 30 l-35 17
30 13 c33 15 23 19 -12 5z m257 -89 c24 -7 24 -7 -9 -14 -19 -4 -51 -4 -70 -1
-30 6 -33 8 -16 15 24 9 62 9 95 0z"/>
<path d="M4958 4853 c7 -3 16 -2 19 1 4 3 -2 6 -13 5 -11 0 -14 -3 -6 -6z"/>
<path d="M5416 4940 c12 -13 16 -13 23 -1 5 7 13 11 19 7 6 -3 13 -2 17 4 4 6
-10 9 -34 7 -36 -2 -38 -4 -25 -17z"/>
<path d="M5441 4920 c-34 -19 -60 -40 -50 -40 3 0 30 13 60 30 30 16 47 29 39
29 -8 0 -30 -9 -49 -19z"/>
<path d="M5268 4873 c6 -2 18 -2 25 0 6 3 1 5 -13 5 -14 0 -19 -2 -12 -5z"/>
<path d="M5327 4865 c-44 -15 -65 -31 -27 -20 37 11 86 33 75 34 -5 0 -27 -6
-48 -14z"/>
<path d="M5035 4830 c-7 -12 68 -12 105 0 19 6 9 8 -37 9 -34 1 -65 -3 -68 -9z"/>
<path d="M5198 4833 c12 -2 30 -2 40 0 9 3 -1 5 -23 4 -22 0 -30 -2 -17 -4z"/>
<path d="M4845 4800 c3 -5 8 -10 11 -10 2 0 4 5 4 10 0 6 -5 10 -11 10 -5 0
-7 -4 -4 -10z"/>
<path d="M5218 4803 c12 -2 32 -2 45 0 12 2 2 4 -23 4 -25 0 -35 -2 -22 -4z"/>
<path d="M5325 4780 c-3 -6 1 -7 9 -4 18 7 21 14 7 14 -6 0 -13 -4 -16 -10z"/>
<path d="M4900 4765 c0 -2 15 -12 33 -20 l32 -16 -25 20 c-24 20 -40 26 -40
16z"/>
<path d="M5128 4713 c7 -3 16 -2 19 1 4 3 -2 6 -13 5 -11 0 -14 -3 -6 -6z"/>
<path d="M7125 6081 c-3 -5 -2 -12 3 -15 5 -3 9 1 9 9 0 17 -3 19 -12 6z"/>
<path d="M5821 4391 c-17 -13 -20 -20 -11 -26 6 -4 17 -2 23 4 6 6 7 11 3 11
-5 0 -3 7 4 15 16 20 10 19 -19 -4z"/>
<path d="M4327 4389 c7 -7 15 -10 18 -7 3 3 -2 9 -12 12 -14 6 -15 5 -6 -5z"/>
<path d="M5755 4340 c-3 -5 -1 -10 4 -10 6 0 11 5 11 10 0 6 -2 10 -4 10 -3 0
-8 -4 -11 -10z"/>
<path d="M5560 4230 c-9 -6 -10 -10 -3 -10 6 0 15 5 18 10 8 12 4 12 -15 0z"/>
<path d="M6085 4180 c-3 -5 -1 -10 4 -10 6 0 11 5 11 10 0 6 -2 10 -4 10 -3 0
-8 -4 -11 -10z"/>
<path d="M4968 4123 c7 -3 16 -2 19 1 4 3 -2 6 -13 5 -11 0 -14 -3 -6 -6z"/>
<path d="M5854 4028 l-19 -23 25 20 c14 11 27 21 29 22 2 2 0 3 -6 3 -5 0 -18
-10 -29 -22z"/>
<path d="M4180 4020 c0 -5 5 -10 11 -10 5 0 7 5 4 10 -3 6 -8 10 -11 10 -2 0
-4 -4 -4 -10z"/>
<path d="M4261 3987 c2 -1 15 -11 29 -22 l25 -20 -19 23 c-11 12 -24 22 -29
22 -6 0 -8 -1 -6 -3z"/>
<path d="M4060 3921 c0 -6 4 -13 10 -16 6 -3 7 1 4 9 -7 18 -14 21 -14 7z"/>
<path d="M4036 3907 c3 -10 9 -15 12 -12 3 3 0 11 -7 18 -10 9 -11 8 -5 -6z"/>
<path d="M5690 3906 c4 -4 16 -4 26 2 16 9 14 10 -8 9 -15 -1 -23 -6 -18 -11z"/>
<path d="M5550 3810 c-8 -5 -10 -10 -5 -10 6 0 17 5 25 10 8 5 11 10 5 10 -5
0 -17 -5 -25 -10z"/>
<path d="M5435 3750 c-3 -6 1 -7 9 -4 18 7 21 14 7 14 -6 0 -13 -4 -16 -10z"/>
<path d="M5270 3690 c-8 -5 -10 -10 -5 -10 6 0 17 5 25 10 8 5 11 10 5 10 -5
0 -17 -5 -25 -10z"/>
<path d="M4863 3673 c9 -2 23 -2 30 0 6 3 -1 5 -18 5 -16 0 -22 -2 -12 -5z"/>
<path d="M5033 3663 c9 -2 23 -2 30 0 6 3 -1 5 -18 5 -16 0 -22 -2 -12 -5z"/>
</g>
</svg>
